<?xml version="1.0" encoding="UTF-8"?>
<svg id="Layer_1" data-name="Layer 1" xmlns="http://www.w3.org/2000/svg" xmlns:xlink="http://www.w3.org/1999/xlink" viewBox="0 0 1661 514">
  <defs>
    <style>
      .cls-1 {
        fill: url(#linear-gradient-2);
      }

      .cls-2 {
        fill: url(#linear-gradient);
      }
    </style>
    <linearGradient id="linear-gradient" x1="481.36" y1="59.62" x2="265.93" y2="318.14" gradientUnits="userSpaceOnUse">
      <stop offset="0" stop-color="#17cacd"/>
      <stop offset="1" stop-color="#2764de"/>
    </linearGradient>
    <linearGradient id="linear-gradient-2" x1="633.31" y1="282.32" x2="1539.37" y2="282.32" xlink:href="#linear-gradient"/>
  </defs>
  <path class="cls-2" d="M184.32,256.98h1.25c36.28,0,65.68,29.41,65.68,65.68v65.68h-66.94c-36.28,0-65.68-29.41-65.68-65.68h0c0-36.28,29.41-65.68,65.68-65.68ZM506.49,122.66l-6.94,1.28c-130.16,14.44-221.43,131.95-221.43,232.34l.31,31.62,12.24.33c86.7-.57,215.6-107.81,215.6-258.51l.22-7.06Z"/>
  <path class="cls-1" d="M721.07,273.47h73.65v92.54h-29.65l-2.63-21.28c-3.51,5.26-7.62,9.68-12.32,13.27-4.7,3.59-10.16,6.3-16.38,8.13-6.22,1.83-13.39,2.75-21.52,2.75-15.78,0-29.62-3.55-41.49-10.64-11.88-7.09-21.08-17.06-27.62-29.89-6.54-12.83-9.8-27.78-9.8-44.84s3.39-32.4,10.16-45.55c6.77-13.15,16.42-23.47,28.93-30.97,12.51-7.49,27.54-11.24,45.08-11.24,19.77,0,36.15,4.7,49.14,14.11,12.99,9.41,21.4,22.48,25.23,39.22h-36.11c-2.39-7.33-6.86-13.11-13.39-17.34-6.54-4.22-14.91-6.34-25.11-6.34-10.84,0-20.05,2.39-27.62,7.17-7.57,4.78-13.35,11.48-17.34,20.09-3.99,8.61-5.98,18.89-5.98,30.85s1.95,22.4,5.86,30.85c3.9,8.45,9.56,14.87,16.98,19.25,7.41,4.39,16.14,6.58,26.18,6.58,14.67,0,25.79-3.95,33.36-11.84,7.57-7.89,12.08-18.13,13.51-30.73h-41.13v-24.15ZM934.13,271.68c4.94,8.85,7.41,19.01,7.41,30.49,0,1.6-.04,3.39-.12,5.38-.08,2-.2,4.03-.36,6.1h-88.81c.38,5.05,1.55,9.56,3.56,13.51,2.47,4.86,5.94,8.65,10.4,11.36,4.46,2.71,9.64,4.07,15.54,4.07s10.96-1.23,14.71-3.71c3.74-2.47,6.65-5.78,8.73-9.92h32.76c-2.07,7.5-5.78,14.31-11.12,20.45-5.34,6.14-11.8,10.92-19.37,14.35-7.57,3.43-16.06,5.14-25.47,5.14-12.12,0-22.84-2.63-32.16-7.89s-16.58-12.55-21.76-21.88c-5.18-9.33-7.77-20.05-7.77-32.16s2.59-23.67,7.77-33.24c5.18-9.57,12.39-17.14,21.64-22.72,9.24-5.58,20-8.37,32.28-8.37s22.4,2.63,31.33,7.89c8.93,5.26,15.86,12.32,20.8,21.16ZM909.02,293.8c-.48-7.49-3.23-13.55-8.25-18.17-5.02-4.62-11.2-6.94-18.53-6.94-5.58,0-10.64,1.32-15.18,3.95-4.54,2.63-8.17,6.46-10.88,11.48-1.52,2.81-2.6,6.05-3.26,9.68h56.11ZM1010.89,212.49h-28.7l-3.59,33h-20.8v27.02h20.8v51.17c0,10.68,1.75,19.09,5.26,25.23,3.5,6.14,8.45,10.52,14.83,13.15,6.37,2.63,13.71,3.95,22,3.95h21.52v-27.5h-15.54c-5.74,0-9.8-1.04-12.2-3.11-2.39-2.07-3.59-5.82-3.59-11.24v-51.65h31.8v-27.02h-31.8v-33ZM1160.11,302.89l-50.93-104.26h-38.5v167.39h32.28v-112.39l44.48,88.96h25.35l44.48-89.2v112.63h32.28v-167.39h-38.5l-50.93,104.26ZM1385.25,264.74c4.38,7.26,6.58,16.06,6.58,26.42v74.85h-27.02l-3.59-18.41c-1.76,3.19-3.87,6.06-6.34,8.61-2.47,2.55-5.34,4.78-8.61,6.7-3.27,1.91-6.81,3.38-10.64,4.42-3.83,1.04-8.21,1.55-13.15,1.55-9.89,0-18.1-1.64-24.63-4.9-6.54-3.27-11.44-7.65-14.71-13.15-3.27-5.5-4.9-11.6-4.9-18.29,0-7.49,1.87-14.03,5.62-19.61,3.74-5.58,9.45-9.92,17.1-13.03s17.37-4.66,29.17-4.66h29.41c0-6.06-.76-11-2.27-14.83-1.52-3.83-3.99-6.7-7.41-8.61-3.43-1.91-7.93-2.87-13.51-2.87-6.06,0-11.2,1.28-15.42,3.83-4.23,2.55-6.81,6.62-7.77,12.2h-31.33c.8-8.77,3.62-16.26,8.49-22.48,4.86-6.22,11.32-11.08,19.37-14.59,8.05-3.5,17.01-5.26,26.9-5.26,11.32,0,21.16,1.88,29.53,5.62,8.37,3.75,14.74,9.25,19.13,16.5ZM1358.34,315.08h-24.63c-5.1,0-9.21.6-12.32,1.79-3.11,1.2-5.38,2.91-6.82,5.14-1.43,2.23-2.15,4.78-2.15,7.65,0,3.03.72,5.62,2.15,7.77,1.44,2.15,3.55,3.79,6.34,4.9,2.79,1.12,5.94,1.67,9.45,1.67,3.98,0,7.61-.75,10.88-2.27,3.27-1.51,6.1-3.62,8.49-6.34,2.39-2.71,4.3-5.74,5.74-9.09s2.39-7.01,2.87-11v-.24ZM1500.15,333.02c-2.39,2.71-5.3,4.78-8.73,6.22-3.43,1.43-7.21,2.15-11.36,2.15s-8.21-.84-11.72-2.51c-3.51-1.67-6.54-4.02-9.09-7.05-2.55-3.03-4.54-6.77-5.98-11.24-1.43-4.46-2.15-9.4-2.15-14.83,0-7.49,1.23-13.87,3.71-19.13,2.47-5.26,5.9-9.33,10.28-12.2,4.38-2.87,9.36-4.3,14.95-4.3,6.38,0,11.8,1.64,16.26,4.9,4.46,3.27,7.41,7.61,8.85,13.03h34.2c-2.87-14.19-9.57-25.31-20.09-33.36-10.52-8.05-23.52-12.08-38.98-12.08-12.12,0-22.88,2.71-32.28,8.13-9.41,5.42-16.74,12.88-22,22.36-5.26,9.49-7.89,20.61-7.89,33.36,0,11.96,2.63,22.64,7.89,32.04,5.26,9.41,12.59,16.82,22,22.24,9.4,5.42,20.17,8.13,32.28,8.13,15.3,0,28.25-4.14,38.86-12.43,10.6-8.29,17.34-19.29,20.21-33h-34.2c-.96,3.67-2.63,6.86-5.02,9.57Z"/>
</svg>